<?xml version="1.0" encoding="utf-8"?><svg viewBox="0 0 25 30" xmlns="http://www.w3.org/2000/svg" xmlns:xlink="http://www.w3.org/1999/xlink"><style>:root>svg{display:none}:root>svg:target{display:block}</style><svg viewBox="0 0 18 18" id="icon-accumulator" xmlns="http://www.w3.org/2000/svg"><path d="M16.5 3.75V3a.75.75 0 0 0-.75-.75H13.5a.75.75 0 0 0-.75.75v.75h-.22l-.31-.31A1.51 1.51 0 0 0 11.16 3H6.84c-.394 0-.78.16-1.06.44l-.31.31h-.22V3a.75.75 0 0 0-.75-.75H2.25A.75.75 0 0 0 1.5 3v.75c-.827 0-1.5.673-1.5 1.5v9c0 .827.673 1.5 1.5 1.5h15c.827 0 1.5-.673 1.5-1.5v-9c0-.827-.673-1.5-1.5-1.5ZM4.125 7.5h-1.5a.375.375 0 1 1 0-.75h1.5a.375.375 0 1 1 0 .75Zm11.25 0H15v.375a.375.375 0 1 1-.75 0V7.5h-.375a.375.375 0 1 1 0-.75h.375v-.375a.375.375 0 1 1 .75 0v.375h.375a.375.375 0 1 1 0 .75Z"/></svg><svg viewBox="0 0 10 18" id="icon-arrow" xmlns="http://www.w3.org/2000/svg"><path fill-rule="evenodd" clip-rule="evenodd" d="M2.041.358 9.65 8.136a1.241 1.241 0 0 1 0 1.728L2.04 17.642a1.177 1.177 0 0 1-1.69 0 1.241 1.241 0 0 1 0-1.728L7.113 9 .35 2.086a1.241 1.241 0 0 1 0-1.728 1.177 1.177 0 0 1 1.691 0Z"/></svg><svg viewBox="0 0 12 10" id="icon-arrow-line" xmlns="http://www.w3.org/2000/svg"><path d="M11.46 5.46a.65.65 0 0 0 0-.92L7.323.404a.65.65 0 1 0-.92.919L10.082 5 6.404 8.677a.65.65 0 1 0 .919.92L11.46 5.46ZM0 5.65h11v-1.3H0v1.3Z"/></svg><svg viewBox="0 0 20 20" id="icon-balance-scale" xmlns="http://www.w3.org/2000/svg"><path d="M19.414 11.264h-.637l-2.042-4.939a.586.586 0 0 0-.08-1.165h-5.037A1.737 1.737 0 0 0 9.986 4.01c-.751 0-1.392.48-1.633 1.149H3.345a.586.586 0 0 0-.08 1.165l-2.042 4.939H.586A.586.586 0 0 0 0 11.85a4.144 4.144 0 0 0 4.139 4.139 4.144 4.144 0 0 0 4.139-4.14.586.586 0 0 0-.586-.585h-.638L5.015 6.33h3.338c.241.67.882 1.149 1.633 1.149.75 0 1.39-.48 1.632-1.149h3.367l-2.04 4.933h-.637a.586.586 0 0 0-.586.586 4.144 4.144 0 0 0 4.14 4.139A4.143 4.143 0 0 0 20 11.849a.586.586 0 0 0-.586-.585ZM4.14 14.817a2.972 2.972 0 0 1-2.909-2.381h5.818a2.972 2.972 0 0 1-2.91 2.38Zm1.647-3.553H2.492l1.647-3.985 1.647 3.985Zm4.2-4.956a.563.563 0 1 1 0-1.126.563.563 0 0 1 0 1.126Zm5.875.971 1.648 3.985h-3.295l1.647-3.985Zm0 7.538a2.972 2.972 0 0 1-2.909-2.381h5.818a2.972 2.972 0 0 1-2.909 2.38Z"/><path fill-rule="evenodd" clip-rule="evenodd" d="M18.77 12.436a2.974 2.974 0 0 1-2.909 2.38h-.055a2.949 2.949 0 0 1-1.592-.5 2.974 2.974 0 0 1-1.262-1.88h5.818Zm.007-1.172h.637c.324 0 .586.262.586.586a4.143 4.143 0 0 1-.586 2.12c-.178.298-.393.572-.637.815l-.007.006a4.153 4.153 0 0 1-.572.473 4.115 4.115 0 0 1-2.337.725 4.115 4.115 0 0 1-2.915-1.204 4.168 4.168 0 0 1-.85-1.218 4.109 4.109 0 0 1-.374-1.717.586.586 0 0 1 .586-.586h.638l2.039-4.933h-3.367l-.001.004A1.739 1.739 0 0 1 9.986 7.48a1.739 1.739 0 0 1-1.631-1.145l-.002-.004H5.015l2.04 4.933h.637a.586.586 0 0 1 .586.586 4.143 4.143 0 0 1-.586 2.12c-.179.298-.393.572-.638.815l-.006.006a4.163 4.163 0 0 1-.572.473 4.115 4.115 0 0 1-2.337.725A4.115 4.115 0 0 1 1.23 14.79l-.007-.006A4.112 4.112 0 0 1 0 11.85c0-.324.262-.586.586-.586h.637l2.042-4.939a.584.584 0 0 1-.506-.58c0-.323.262-.585.586-.585h5.008l.002-.004a1.735 1.735 0 0 1 1.631-1.145 1.735 1.735 0 0 1 1.632 1.149h5.037a.586.586 0 0 1 .08 1.165l2.042 4.939Zm-1.268 0-.87-2.104-.778-1.88-1.647 3.984h3.295ZM3.36 9.16l-.87 2.104h3.295L4.14 7.279 3.36 9.16ZM1.23 12.436a2.974 2.974 0 0 0 2.964 2.38 2.949 2.949 0 0 0 1.592-.5 2.974 2.974 0 0 0 1.262-1.88H1.23Zm8.227-6.498a.563.563 0 0 0 1.057 0l.001-.004a.56.56 0 0 0 0-.377v-.004a.563.563 0 0 0-1.057 0l-.002.004a.56.56 0 0 0 .001.38Z"/></svg><svg viewBox="0 0 25 25" id="icon-billfold" xmlns="http://www.w3.org/2000/svg"><g clip-path="url(#aea)"><path d="M20.313 16.667a4.693 4.693 0 0 1-4.688-4.688 4.693 4.693 0 0 1 4.688-4.687h2.604V5.99a2.867 2.867 0 0 0-2.865-2.865H2.865A2.867 2.867 0 0 0 0 5.99v13.02a2.867 2.867 0 0 0 2.865 2.865h17.187a2.867 2.867 0 0 0 2.865-2.865v-2.343h-2.605Z"/><path d="M24.219 8.854h-3.907a3.129 3.129 0 0 0-3.125 3.125 3.129 3.129 0 0 0 3.125 3.125h3.907c.431 0 .781-.35.781-.781V9.635a.782.782 0 0 0-.781-.78Zm-3.907 4.167a1.042 1.042 0 1 1 .001-2.084 1.042 1.042 0 0 1 0 2.084Z"/></g><defs><clipPath id="aea"><path fill="#fff" d="M0 0h25v25H0z"/></clipPath></defs></svg><svg viewBox="0 0 16 16" id="icon-box" xmlns="http://www.w3.org/2000/svg"><g clip-path="url(#afa)"><path d="M15.646 3.958v-.034c-.017-.034-.017-.068-.034-.102v-.017a.369.369 0 0 0-.068-.084l-.017-.017c-.017-.017-.05-.034-.067-.05l-.017-.018h-.017l-.017-.017L8.221.051a.539.539 0 0 0-.457 0l-2.418 1.2 7.222 3.704.017.017c.016 0 .016.017.033.017.017.017.017.034.034.051v3.974a.177.177 0 0 1-.084.153l-1.455.76c-.084.051-.186.018-.237-.067-.016-.017-.016-.05-.016-.085V5.936L3.553 2.165l-.017-.017L.61 3.602l-.016.017H.577l-.017.017c-.017.017-.051.034-.068.05l-.017.018c-.034.034-.05.068-.084.101v.017c-.017.034-.034.068-.034.102v.034c0 .033-.017.05-.017.084V11.94c0 .186.101.372.287.457l7.12 3.552c.102.05.22.067.339.033l.034-.016c.033 0 .05-.017.084-.034l7.171-3.552a.51.51 0 0 0 .288-.457V4.042c-.017-.034-.017-.05-.017-.084Z"/></g><defs><clipPath id="afa"><path fill="#fff" d="M0 0h16v16H0z"/></clipPath></defs></svg><svg viewBox="0 0 18 18" id="icon-calendar" xmlns="http://www.w3.org/2000/svg"><path d="M17 6.281V4.438c0-.776-.63-1.407-1.406-1.407h-.188V4.75a.469.469 0 1 1-.937 0v-2.5a.469.469 0 0 0-.938 0v.781h-3.125V4.75a.469.469 0 1 1-.937 0v-2.5a.469.469 0 0 0-.938 0v.781H5.406V4.75a.469.469 0 0 1-.937 0v-2.5a.469.469 0 0 0-.938 0v.781H2.406C1.631 3.031 1 3.662 1 4.437v1.844h16ZM1 7.219v7.593c0 .776.63 1.407 1.406 1.407h13.188c.775 0 1.406-.631 1.406-1.407V7.22H1Zm4.5 6.5h-1a.469.469 0 0 1 0-.938h1a.469.469 0 0 1 0 .938Zm0-2h-1a.469.469 0 0 1 0-.938h1a.469.469 0 0 1 0 .938Zm0-2h-1a.469.469 0 0 1 0-.938h1a.469.469 0 0 1 0 .938Zm4 4h-1a.469.469 0 0 1 0-.938h1a.469.469 0 0 1 0 .938Zm0-2h-1a.469.469 0 0 1 0-.938h1a.469.469 0 0 1 0 .938Zm0-2h-1a.469.469 0 0 1 0-.938h1a.469.469 0 0 1 0 .938Zm4 4h-1a.469.469 0 0 1 0-.938h1a.469.469 0 0 1 0 .938Zm0-2h-1a.469.469 0 0 1 0-.938h1a.469.469 0 0 1 0 .938Zm0-2h-1a.469.469 0 1 1 0-.938h1a.469.469 0 1 1 0 .938Z"/></svg><svg viewBox="0 0 20 20" id="icon-charger" xmlns="http://www.w3.org/2000/svg"><path d="M8.427 6.137h2.695V4.965H8.427V2.532h2.695V1.36H8.427V.628h-2.94v6.241h2.94v-.732ZM4.315 0H1.19C.542 0 .018.525.018 1.172v7.224c0 .647.524 1.172 1.171 1.172h3.126V0Z"/><path d="M18.153 14.26h1.172V3.462A3.466 3.466 0 0 0 15.862 0 3.466 3.466 0 0 0 12.4 3.462v10.71a4.661 4.661 0 0 1-4.656 4.656 4.661 4.661 0 0 1-4.656-4.656V10.74H1.916v3.432A5.834 5.834 0 0 0 7.744 20a5.834 5.834 0 0 0 5.828-5.828V3.462a2.293 2.293 0 0 1 2.29-2.29 2.293 2.293 0 0 1 2.29 2.29V14.26ZM17.498 15.432v2.704h.657V20h1.172v-1.864h.656v-2.704h-2.485Z"/></svg><svg viewBox="0 0 17 17" id="icon-check" xmlns="http://www.w3.org/2000/svg"><path d="M11.604 5.86h-.779c-.17 0-.33.082-.43.221l-2.61 3.62-1.182-1.64a.531.531 0 0 0-.43-.222h-.778a.133.133 0 0 0-.108.211l2.068 2.869a.528.528 0 0 0 .859 0L11.71 6.07a.132.132 0 0 0-.106-.21Z"/><path d="M8.5 1.063a7.438 7.438 0 1 0 .001 14.875A7.438 7.438 0 0 0 8.5 1.062Zm0 13.613a6.177 6.177 0 0 1 0-12.352 6.177 6.177 0 0 1 0 12.352Z"/></svg><svg viewBox="0 0 20 20" id="icon-del" xmlns="http://www.w3.org/2000/svg"><path d="M7.031 3.594h-.156c.086 0 .156-.07.156-.156v.156h5.938v-.156c0 .085.07.156.156.156h-.156V5h1.406V3.437c0-.689-.56-1.25-1.25-1.25h-6.25c-.69 0-1.25.561-1.25 1.25V5h1.406V3.594ZM16.875 5H3.125a.624.624 0 0 0-.625.625v.625c0 .086.07.156.156.156h1.18l.482 10.215a1.251 1.251 0 0 0 1.248 1.192h8.868c.668 0 1.216-.524 1.248-1.192l.482-10.215h1.18c.086 0 .156-.07.156-.156v-.625A.624.624 0 0 0 16.875 5Zm-2.592 11.406H5.717l-.473-10h9.512l-.473 10Z"/></svg><svg viewBox="0 0 25 25" id="icon-delivery" xmlns="http://www.w3.org/2000/svg"><g clip-path="url(#ala)" fill-rule="evenodd" clip-rule="evenodd"><path d="M18.402 6.5V.732A.732.732 0 0 0 17.67 0h-4.945v5.568c0 .526-.56.931-1.11.628l-2.39-1.21-2.44 1.234a.732.732 0 0 1-1.06-.652V0H.778a.732.732 0 0 0-.732.732v16.891c0 .405.328.733.732.733h9.548C9.88 17.17 9.61 15.99 9.61 14.94c0-4.796 3.989-8.634 8.792-8.441Z"/><path d="m9.553 3.514 1.707.865V0H7.188v4.379l1.705-.864a.73.73 0 0 1 .66 0ZM18.058 7.957a6.984 6.984 0 0 0-6.984 6.984c0 1.843 1.043 4.274 2.374 6.26C14.878 23.334 16.71 25 18.058 25c1.348 0 3.179-1.666 4.61-3.8 1.33-1.985 2.373-4.416 2.373-6.26a6.984 6.984 0 0 0-6.983-6.983Zm0 9.672a2.688 2.688 0 1 1 0-5.376 2.688 2.688 0 0 1 0 5.376Z"/><path d="M19.282 14.94a1.223 1.223 0 1 1-2.446 0 1.223 1.223 0 0 1 2.446 0Z"/></g><defs><clipPath id="ala"><path fill="#fff" d="M0 0h25v25H0z"/></clipPath></defs></svg><svg viewBox="0 0 22 22" id="icon-delivery-truck" xmlns="http://www.w3.org/2000/svg"><g clip-path="url(#aka)"><path d="M20.73 9.882h-.5l-.808-3.38a1.07 1.07 0 0 0-1.047-.833H15.09v-.645c0-.83-.675-1.504-1.504-1.504H1.505C.675 3.52 0 4.195 0 5.024v10.017c0 .83.675 1.505 1.505 1.505h1.231a2.584 2.584 0 0 0 2.498 1.934c1.2 0 2.21-.823 2.498-1.934h6.88a2.584 2.584 0 0 0 2.498 1.934c1.2 0 2.21-.823 2.498-1.934h.887c.83 0 1.505-.675 1.505-1.505v-3.888c0-.7-.57-1.27-1.27-1.27ZM18.204 6.96l.7 2.923h-3.816V6.96h3.116ZM1.29 15.04v-1.886h1.37a.645.645 0 1 0 0-1.29H1.29v-6.84c0-.12.096-.216.215-.216h12.08c.118 0 .215.097.215.215v10.232H7.732a2.584 2.584 0 0 0-2.498-1.935c-1.2 0-2.21.824-2.498 1.935H1.505a.215.215 0 0 1-.215-.215Zm3.944 2.15c-.711 0-1.29-.58-1.29-1.29 0-1.315 1.749-1.78 2.406-.645a1.29 1.29 0 0 1-1.116 1.935Zm11.876 0c-.993 0-1.612-1.082-1.117-1.935.66-1.14 2.407-.667 2.407.645 0 .707-.576 1.29-1.29 1.29Zm3.6-2.15a.215.215 0 0 1-.215.215h-.887a2.577 2.577 0 0 0-4.518-.957v-3.127h5.62v3.869Z"/><path d="M6.21 11.809c.241.274.661.295.927.045l2.88-2.703a.645.645 0 0 0-.882-.94l-2.393 2.246-.743-.849a.645.645 0 1 0-.97.85l1.182 1.35Z"/></g><defs><clipPath id="aka"><path fill="#fff" d="M0 0h22v22H0z"/></clipPath></defs></svg><svg viewBox="0 0 18 18" id="icon-dog" xmlns="http://www.w3.org/2000/svg"><g clip-path="url(#ama)"><path d="M17.634 7.762A8.721 8.721 0 1 0 .353 10.133a8.783 8.783 0 0 0 7.487 7.51c.388.051.779.077 1.17.077a8.635 8.635 0 0 0 4.484-1.247.843.843 0 0 0-.87-1.446 7.03 7.03 0 1 1 3.022-3.724 1.218 1.218 0 0 1-1.17.79 1.259 1.259 0 0 1-1.257-1.257V5.625a.844.844 0 0 0-1.688 0v.008a4.218 4.218 0 1 0 .305 6.481 2.938 2.938 0 0 0 2.64 1.667 2.906 2.906 0 0 0 2.764-1.926 8.739 8.739 0 0 0 .394-4.093ZM9 11.532A2.53 2.53 0 1 1 9 6.47a2.53 2.53 0 0 1 0 5.061Z"/></g><defs><clipPath id="ama"><path fill="#fff" d="M0 0h18v18H0z"/></clipPath></defs></svg><svg viewBox="0 0 16 17" id="icon-electric-scooter" xmlns="http://www.w3.org/2000/svg"><g clip-path="url(#aoa)"><path d="M10.969 13.337H5.027a2.949 2.949 0 0 1 0 2.269h5.942a2.949 2.949 0 0 1 0-2.269ZM13.835 11.51 12.685.5h-3.11v.937h2.266l1.063 10.182a2.957 2.957 0 0 1 .93-.11ZM15.74 14.472a2.03 2.03 0 0 0-2.028-2.028 2.03 2.03 0 0 0-2.028 2.028 2.03 2.03 0 0 0 2.028 2.028 2.03 2.03 0 0 0 2.028-2.028ZM8 8.09c.74 0 1.453.311 1.956.854l.688-.637A3.616 3.616 0 0 0 8 7.152c-1 0-1.964.421-2.645 1.155l.688.637A2.676 2.676 0 0 1 8 8.09Z"/><path d="m6.508 9.747.775.527a.863.863 0 0 1 1.428 0l.776-.527a1.8 1.8 0 0 0-2.98 0ZM4.318 14.472a2.03 2.03 0 0 0-2.028-2.028 2.03 2.03 0 0 0-2.028 2.028A2.03 2.03 0 0 0 2.29 16.5a2.03 2.03 0 0 0 2.028-2.028Z"/></g><defs><clipPath id="aoa"><path fill="#fff" transform="translate(0 .5)" d="M0 0h16v16H0z"/></clipPath></defs></svg><svg viewBox="0 0 16 17" id="icon-electric-scooter-2" xmlns="http://www.w3.org/2000/svg"><g clip-path="url(#ana)"><path d="m9.573 5.268.862-.375L8.834.891H6.512v.939h1.686l1.375 3.438ZM14.256 11.271l-2.543-5.908-2.7 1.174.651 1.512-2.324 4.114H5.98a2.96 2.96 0 0 0-2.958-3.006H0v.94h3.022c1.066 0 2.02.841 2.02 2.066h-.55a2.476 2.476 0 0 0-2.832-.853A2.478 2.478 0 0 0 .035 13.5a2.475 2.475 0 0 0 4.458 1.606H8.79l2.225-3.92.46 1.067a2.47 2.47 0 0 0 .112 2.914 2.468 2.468 0 0 0 3.753.148c1.245-1.343.642-3.512-1.084-4.044Z"/></g><defs><clipPath id="ana"><path fill="#fff" transform="translate(0 .5)" d="M0 0h16v16H0z"/></clipPath></defs></svg><svg viewBox="0 0 16 17" id="icon-electro-bike" xmlns="http://www.w3.org/2000/svg"><g clip-path="url(#apa)"><path d="m12.296 7.103-.845-2.555h.71a.518.518 0 0 0 .516-.516.518.518 0 0 0-.516-.516h-1.423c-.351 0-.6.345-.49.678l.507 1.532-.368.468H5.98l-.564-.936h.129a.518.518 0 0 0 .516-.516.518.518 0 0 0-.516-.516H3.932a.518.518 0 0 0-.516.516c0 .284.232.516.516.516h.277l2.72 4.516H6.36c-.4-2.49-3.52-3.655-5.423-1.751a3.18 3.18 0 0 0 0 4.519c1.855 1.855 4.997.81 5.42-1.736h1.48c.159 0 .31-.074.407-.196l2.897-3.704.17.52a3.216 3.216 0 0 0-1.735 2.848 3.212 3.212 0 0 0 6.423 0 3.213 3.213 0 0 0-3.704-3.17ZM4.567 9.774a1.488 1.488 0 1 0-.006 1.036h.748a2.176 2.176 0 0 1-2.106 1.645 2.174 2.174 0 0 1-2.171-2.171c0-1.197.974-2.171 2.171-2.171 1.023 0 1.88.71 2.11 1.661h-.746ZM7.9 9.377 6.603 7.226H9.58L7.9 9.377Zm4.89 3.075a2.178 2.178 0 0 1-1.145-4.029l.229.69a1.487 1.487 0 1 0 2.406 1.168c0-.8-.629-1.452-1.422-1.484l-.23-.694a2.178 2.178 0 0 1 2.343 2.171 2.186 2.186 0 0 1-2.181 2.178Z"/></g><defs><clipPath id="apa"><path fill="#fff" transform="translate(0 .5)" d="M0 0h16v16H0z"/></clipPath></defs></svg><svg viewBox="0 0 18 18" id="icon-eye" xmlns="http://www.w3.org/2000/svg"><path d="M9 10.125a1.125 1.125 0 1 0 0-2.25 1.125 1.125 0 0 0 0 2.25Z"/><path d="M16.402 8.625c-.48-.832-3.12-5.01-7.605-4.875-4.148.105-6.548 3.75-7.2 4.875a.75.75 0 0 0 0 .75c.472.818 3 4.875 7.417 4.875h.188c4.147-.105 6.555-3.75 7.2-4.875a.75.75 0 0 0 0-.75Zm-7.403 3a2.625 2.625 0 1 1 0-5.25 2.625 2.625 0 0 1 0 5.25Z"/></svg><svg viewBox="0 0 22 22" id="icon-file" xmlns="http://www.w3.org/2000/svg"><path d="M16.742 4.224a5.197 5.197 0 0 0-7.341 0L3.793 9.828a.193.193 0 0 0-.055.137c0 .052.019.101.055.137l.793.793a.193.193 0 0 0 .273 0l5.607-5.603a3.661 3.661 0 0 1 2.607-1.078c.983 0 1.91.382 2.603 1.078a3.66 3.66 0 0 1 1.079 2.604c0 .984-.383 1.908-1.079 2.604l-5.714 5.713-.926.926a2.221 2.221 0 0 1-3.14 0 2.202 2.202 0 0 1-.648-1.569c0-.593.23-1.15.649-1.568l5.67-5.668a.758.758 0 0 1 .534-.22h.003c.202 0 .389.079.53.22a.749.749 0 0 1 0 1.066L8 14.03a.193.193 0 0 0-.056.137c0 .052.02.101.056.138l.793.793a.194.194 0 0 0 .273 0l4.632-4.632c.427-.428.661-.995.661-1.599a2.25 2.25 0 0 0-.661-1.598 2.267 2.267 0 0 0-3.201 0l-.55.552-5.118 5.115a3.7 3.7 0 0 0-1.091 2.636 3.722 3.722 0 0 0 3.728 3.721c.953 0 1.907-.363 2.633-1.089l6.643-6.638a5.165 5.165 0 0 0 1.519-3.67 5.149 5.149 0 0 0-1.519-3.672Z"/></svg><svg viewBox="0 0 25 25" id="icon-guarantee" xmlns="http://www.w3.org/2000/svg"><g clip-path="url(#asa)"><path d="m25 12.514-2.14-2.787.479-3.463-3.266-1.295-1.295-3.266-3.463.479L12.5.014l-2.787 2.14-3.463-.479-1.295 3.266-3.266 1.295.479 3.463L0 12.514l2.14 2.787-.479 3.463 3.266 1.295 1.295 3.266 3.463-.479 2.787 2.14 2.787-2.14 3.463.479 1.295-3.266 3.266-1.323-.479-3.463L25 12.514Zm-13.514 4.054L7.32 13.133l.9-1.097 3.098 2.533L16.61 8.46l1.07.93-6.194 7.178Z"/></g><defs><clipPath id="asa"><path fill="#fff" d="M0 0h25v25H0z"/></clipPath></defs></svg><svg viewBox="0 0 20 20" id="icon-heart" xmlns="http://www.w3.org/2000/svg"><path d="M17.995 5.515A5.138 5.138 0 0 0 13.264 2.4a5.155 5.155 0 0 0-3.261 1.16A5.155 5.155 0 0 0 6.741 2.4c-.691 0-1.36.133-1.992.399a5.127 5.127 0 0 0-3.148 4.717c0 .654.132 1.336.394 2.029.22.58.535 1.18.938 1.787.638.96 1.515 1.962 2.604 2.978a29.144 29.144 0 0 0 3.667 2.893l.461.298a.62.62 0 0 0 .671 0l.46-.298c.077-.05 1.862-1.21 3.668-2.893 1.09-1.016 1.967-2.017 2.604-2.978.403-.607.72-1.208.938-1.787a5.733 5.733 0 0 0 .394-2.029 5.042 5.042 0 0 0-.406-2.001Zm-7.993 10.433S3.08 11.468 3.08 7.516c0-2.001 1.639-3.623 3.661-3.623 1.422 0 2.655.8 3.261 1.971a3.668 3.668 0 0 1 3.262-1.971c2.022 0 3.662 1.622 3.662 3.623 0 3.952-6.923 8.432-6.923 8.432Z"/></svg><svg viewBox="0 0 20 20" id="icon-heart-2" xmlns="http://www.w3.org/2000/svg"><path d="M17.995 5.515A5.138 5.138 0 0 0 13.264 2.4a5.155 5.155 0 0 0-3.261 1.16A5.155 5.155 0 0 0 6.741 2.4c-.691 0-1.36.133-1.992.399a5.127 5.127 0 0 0-3.148 4.717c0 .654.132 1.336.394 2.029.22.58.535 1.18.938 1.787.638.96 1.515 1.962 2.604 2.978a29.144 29.144 0 0 0 3.667 2.893l.461.298a.62.62 0 0 0 .671 0l.46-.298c.077-.05 1.862-1.21 3.668-2.893 1.09-1.016 1.967-2.017 2.604-2.978.403-.607.72-1.208.938-1.787a5.733 5.733 0 0 0 .394-2.029 5.042 5.042 0 0 0-.406-2.001Zm-7.993 10.433S3.08 11.468 3.08 7.516c0-2.001 1.639-3.623 3.661-3.623 1.422 0 2.655.8 3.261 1.971a3.668 3.668 0 0 1 3.262-1.971c2.022 0 3.662 1.622 3.662 3.623 0 3.952-6.923 8.432-6.923 8.432Z"/><path d="M4 4c2.1-1.4 4.352-.605 5.553.174.343-.153 1.08-.37 2.447-.674 4.5-1 4.5 1.5 5.5 3 .8 1.2-.333 3.5-1 4.5L10 17l-7-6.5C2.333 9 1.6 5.6 4 4Z"/></svg><svg viewBox="0 0 20 20" id="icon-home" xmlns="http://www.w3.org/2000/svg"><path d="m18.488 9.864-7.546-7.543-.506-.506a.615.615 0 0 0-.868 0l-8.052 8.05a1.248 1.248 0 0 0-.367.898c.007.687.58 1.236 1.267 1.236h.83v6.361h13.512V12h.848a1.244 1.244 0 0 0 1.156-.774c.062-.152.094-.315.093-.479 0-.332-.13-.646-.367-.883Zm-7.392 7.09H8.908V12.97h2.188v3.984Zm4.256-6.361v6.361h-3.006v-4.453a.781.781 0 0 0-.781-.781H8.44a.781.781 0 0 0-.782.781v4.453H4.652v-6.361H2.777l7.227-7.22.451.45 6.774 6.77h-1.877Z"/></svg><svg viewBox="0 0 20 20" id="icon-inst" xmlns="http://www.w3.org/2000/svg"><g clip-path="url(#awa)"><path d="M13.75 0h-7.5A6.25 6.25 0 0 0 0 6.25v7.5A6.25 6.25 0 0 0 6.25 20h7.5A6.25 6.25 0 0 0 20 13.75v-7.5A6.25 6.25 0 0 0 13.75 0Zm4.375 13.75a4.38 4.38 0 0 1-4.375 4.375h-7.5a4.38 4.38 0 0 1-4.375-4.375v-7.5A4.38 4.38 0 0 1 6.25 1.875h7.5a4.38 4.38 0 0 1 4.375 4.375v7.5Z"/><path d="M10 5a5 5 0 1 0 0 10 5 5 0 0 0 0-10Zm0 8.125A3.13 3.13 0 0 1 6.875 10 3.129 3.129 0 0 1 10 6.875 3.129 3.129 0 0 1 13.125 10 3.13 3.13 0 0 1 10 13.125ZM15.373 5.291a.666.666 0 1 0 0-1.332.666.666 0 0 0 0 1.332Z"/></g><defs><clipPath id="awa"><path d="M0 0h20v20H0z"/></clipPath></defs></svg><svg viewBox="0 0 18 18" id="icon-lightning" xmlns="http://www.w3.org/2000/svg"><path d="M14.224.26a.484.484 0 0 0-.428-.26H6.73a.484.484 0 0 0-.463.346L3.743 8.804a.482.482 0 0 0 .463.62h3.962l-1.596 7.997a.484.484 0 0 0 .894.335l6.224-10.93a.485.485 0 0 0-.42-.725h-2.803l3.725-5.34a.482.482 0 0 0 .032-.5Z"/></svg><svg viewBox="0 0 20 20" id="icon-manual" xmlns="http://www.w3.org/2000/svg"><g clip-path="url(#aya)"><path d="M17.082 2.264h-.585v14.367c0 .955-.777 1.732-1.731 1.732H4.129v.532c0 .61.495 1.105 1.105 1.105H17.08c.61 0 1.105-.495 1.105-1.105V3.37c0-.61-.493-1.105-1.103-1.105Z"/><path d="M8.84 17.736h5.924c.61 0 1.104-.495 1.104-1.105V1.104C15.868.496 15.373 0 14.764 0H6.87v.365c.005.038.007.078.007.117V3.51c0 .858-.697 1.556-1.556 1.556H2.295c-.032 0-.065-.002-.096-.004h-.385v11.57c0 .61.495 1.105 1.105 1.105h5.922Zm.224-3.755H5.202a.522.522 0 0 1 0-1.044h3.864a.522.522 0 1 1-.002 1.044Zm3.864-2.665H5.202a.522.522 0 0 1 0-1.045h7.726a.522.522 0 0 1 0 1.045ZM5.202 7.442h7.726a.522.522 0 0 1 0 1.044H5.202a.522.522 0 0 1 0-1.044Z"/><path d="M2.295 4.438H5.33a.927.927 0 0 0 .919-.919V.482a.465.465 0 0 0-.794-.328l-3.49 3.49a.465.465 0 0 0 .33.794Z"/></g><defs><clipPath id="aya"><path fill="#fff" d="M0 0h20v20H0z"/></clipPath></defs></svg><svg viewBox="0 0 16 16" id="icon-map" xmlns="http://www.w3.org/2000/svg"><path d="M12.744 1.965A6.664 6.664 0 0 0 8.001 0a6.664 6.664 0 0 0-4.743 1.965 6.664 6.664 0 0 0-1.965 4.743c0 1.792.698 3.476 1.965 4.743l4.411 4.412a.467.467 0 0 0 .663 0l4.412-4.412a6.664 6.664 0 0 0 1.965-4.743 6.664 6.664 0 0 0-1.965-4.743Zm-2.636 6.85A2.96 2.96 0 0 1 8 9.686a2.96 2.96 0 0 1-2.107-.873 2.96 2.96 0 0 1-.872-2.106c0-.796.31-1.544.872-2.107a2.96 2.96 0 0 1 2.107-.872c.796 0 1.544.31 2.107.872a2.96 2.96 0 0 1 .872 2.107 2.96 2.96 0 0 1-.872 2.106Z"/></svg><svg viewBox="0 0 25 25" id="icon-percentage" xmlns="http://www.w3.org/2000/svg"><g clip-path="url(#baa)"><path d="M10.855 9.706c.964-1.046 1.495-2.449 1.495-3.95C12.35 2.895 10.307 0 6.402 0 4.585 0 3.052.624 1.97 1.805 1.009 2.851.48 4.254.48 5.755c0 2.86 2.035 5.756 5.922 5.756 1.825 0 3.364-.624 4.453-1.805Zm-4.453-7.03c2.14 0 3.115 1.597 3.115 3.081 0 .808-.272 1.555-.766 2.104-.55.614-1.35.938-2.314.938-2.194 0-3.193-1.597-3.193-3.08 0-1.515.977-3.043 3.158-3.043ZM20.607 2.22c-.354.007-.837.227-1.074.49L1.966 22.242c-.237.263-.07.632.284.632h2.3c.354 0 .836-.215 1.073-.479L23.08 2.867c.236-.263.22-.693-.364-.692l-2.11.045ZM18.684 13.708c-1.782 0-3.286.613-4.349 1.771-.941 1.026-1.46 2.403-1.46 3.875 0 2.806 1.995 5.646 5.81 5.646 1.79 0 3.3-.612 4.367-1.77.946-1.026 1.467-2.403 1.467-3.876 0-2.805-2.004-5.646-5.835-5.646Zm.035 8.701c-2.135 0-3.107-1.603-3.107-3.091 0-.81.271-1.56.765-2.112.55-.616 1.348-.941 2.307-.941 2.135 0 3.107 1.602 3.107 3.091 0 .81-.272 1.561-.765 2.112-.55.616-1.348.941-2.307.941Z"/></g><defs><clipPath id="baa"><path fill="#fff" d="M0 0h25v25H0z"/></clipPath></defs></svg><svg viewBox="0 0 16 16" id="icon-picture" xmlns="http://www.w3.org/2000/svg"><g clip-path="url(#bba)"><path d="M14.191.5H1.81C.812.5 0 1.312 0 2.311v11.38a1.81 1.81 0 0 0 1.81 1.808H14.19A1.81 1.81 0 0 0 16 13.69V2.312c0-1-.81-1.81-1.809-1.81Zm-3.845 2.693a1.748 1.748 0 1 1 0 3.496 1.748 1.748 0 0 1 0-3.496Zm3.278 10.633H2.627c-.483 0-.698-.35-.48-.78l3-5.941c.216-.431.63-.47.924-.086l3.016 3.941a.74.74 0 0 0 1.146.073l.738-.747c.339-.344.838-.301 1.115.094l1.91 2.73c.277.395.11.716-.372.716Z"/></g><defs><clipPath id="bba"><path fill="#fff" d="M0 0h16v16H0z"/></clipPath></defs></svg><svg viewBox="0 0 8 8" id="icon-plus" xmlns="http://www.w3.org/2000/svg"><path d="M0 4.653h8V3.347H0v1.306ZM3.299 0v8h1.402V0H3.299Z"/></svg><svg viewBox="0 0 16 3" id="icon-points" xmlns="http://www.w3.org/2000/svg"><path d="M0 1.313a1.312 1.312 0 1 0 2.625 0 1.312 1.312 0 0 0-2.625 0Zm6.563 0a1.313 1.313 0 1 0 2.625 0 1.313 1.313 0 0 0-2.626 0Zm6.562 0a1.313 1.313 0 1 0 2.625 0 1.313 1.313 0 0 0-2.625 0Z"/></svg><svg viewBox="0 0 16 17" id="icon-scale" xmlns="http://www.w3.org/2000/svg"><g clip-path="url(#bea)"><path d="M13.523.5H2.477A2.48 2.48 0 0 0 0 2.977v11.046A2.48 2.48 0 0 0 2.477 16.5h11.046A2.48 2.48 0 0 0 16 14.023V2.977A2.48 2.48 0 0 0 13.523.5Zm-1.287 4.427L10.46 6.702a.469.469 0 0 1-.663 0A2.528 2.528 0 0 0 8 5.956c-.679 0-1.317.265-1.798.746a.469.469 0 0 1-.663 0L3.764 4.927a.469.469 0 0 1 0-.663A5.952 5.952 0 0 1 8 2.508c1.6 0 3.104.624 4.236 1.756a.469.469 0 0 1 0 .663Z"/><path d="m4.773 4.61 1.12 1.12A3.454 3.454 0 0 1 8 5.018c.771 0 1.505.25 2.108.71l1.118-1.119A5.014 5.014 0 0 0 8 3.446c-1.192 0-2.321.41-3.227 1.164Z"/></g><defs><clipPath id="bea"><path fill="#fff" transform="translate(0 .5)" d="M0 0h16v16H0z"/></clipPath></defs></svg><svg viewBox="0 0 16 16" id="icon-scooter" xmlns="http://www.w3.org/2000/svg"><g clip-path="url(#bfa)"><path d="m12.941 10.847-2.625-8.984 1.766-.191a.667.667 0 0 0-.144-1.325l-5.097.55a.667.667 0 0 0 .072 1.328c.025 0 .047 0 .072-.003l1.988-.213 2.675 9.175c-.528.31-.925.81-1.1 1.404H5.454a2.435 2.435 0 0 0-2.34-1.741c-1.348 0-2.438 1.078-2.438 2.406s1.09 2.406 2.437 2.406a2.43 2.43 0 0 0 2.34-1.74h5.091a2.435 2.435 0 0 0 2.341 1.74c1.347 0 2.438-1.078 2.438-2.406 0-1.312-1.06-2.378-2.382-2.406Z"/></g><defs><clipPath id="bfa"><path d="M0 0h16v16H0z"/></clipPath></defs></svg><svg viewBox="0 0 16 16" id="icon-search" xmlns="http://www.w3.org/2000/svg"><g clip-path="url(#bga)"><path d="m15.952 14.85-5.194-5.194A5.946 5.946 0 0 0 12 6a5.964 5.964 0 0 0-1.758-4.242A5.956 5.956 0 0 0 6 0C4.398 0 2.89.626 1.758 1.758A5.952 5.952 0 0 0 0 6c0 1.602.626 3.11 1.758 4.242A5.952 5.952 0 0 0 6 12a5.95 5.95 0 0 0 3.654-1.24l5.194 5.192a.162.162 0 0 0 .179.036.162.162 0 0 0 .053-.036l.872-.87a.162.162 0 0 0 .036-.179.163.163 0 0 0-.036-.053ZM9.168 9.168A4.456 4.456 0 0 1 6 10.48a4.456 4.456 0 0 1-3.168-1.312A4.456 4.456 0 0 1 1.52 6c0-1.196.466-2.322 1.312-3.168A4.456 4.456 0 0 1 6 1.52c1.196 0 2.322.464 3.168 1.312A4.456 4.456 0 0 1 10.48 6a4.452 4.452 0 0 1-1.312 3.168Z"/></g><defs><clipPath id="bga"><path d="M0 0h16v16H0z"/></clipPath></defs></svg><svg viewBox="0 0 16 16" id="icon-settings" xmlns="http://www.w3.org/2000/svg"><g clip-path="url(#bha)"><path d="m15.623 6.178-1.23-.267a6.686 6.686 0 0 0-.395-.954l.68-1.06a.478.478 0 0 0-.063-.596l-1.916-1.916a.478.478 0 0 0-.597-.064l-1.059.68a6.697 6.697 0 0 0-.954-.395L9.822.376A.478.478 0 0 0 9.355 0h-2.71a.478.478 0 0 0-.467.376l-.267 1.23c-.327.107-.647.24-.954.396l-1.06-.68a.478.478 0 0 0-.596.063L1.385 3.301a.478.478 0 0 0-.064.597l.68 1.059a6.693 6.693 0 0 0-.395.954l-1.23.267A.478.478 0 0 0 0 6.645v2.71c0 .224.157.419.376.467l1.23.267c.107.327.24.647.396.954l-.68 1.06a.478.478 0 0 0 .063.596l1.916 1.916a.478.478 0 0 0 .597.064l1.059-.681c.307.156.627.289.954.396l.267 1.23c.048.22.243.376.467.376h2.71c.224 0 .42-.157.467-.377l.267-1.23a6.69 6.69 0 0 0 .954-.395l1.06.68c.189.122.437.096.596-.063l1.916-1.916a.478.478 0 0 0 .064-.597l-.681-1.059a6.69 6.69 0 0 0 .396-.954l1.23-.267A.478.478 0 0 0 16 9.355v-2.71a.478.478 0 0 0-.377-.467ZM10.869 8A2.872 2.872 0 0 1 8 10.868 2.872 2.872 0 0 1 5.131 8 2.872 2.872 0 0 1 8 5.131 2.872 2.872 0 0 1 10.868 8Z"/></g><defs><clipPath id="bha"><path fill="#fff" d="M0 0h16v16H0z"/></clipPath></defs></svg><svg viewBox="0 0 20 20" id="icon-share" xmlns="http://www.w3.org/2000/svg"><g clip-path="url(#bia)"><path d="M15.423 13.453c-.959 0-1.822.414-2.421 1.072l-5.39-3.338a3.255 3.255 0 0 0 0-2.374l5.39-3.338a3.266 3.266 0 0 0 2.42 1.072 3.277 3.277 0 0 0 3.274-3.274A3.277 3.277 0 0 0 15.423 0a3.277 3.277 0 0 0-3.05 4.46L6.983 7.8a3.266 3.266 0 0 0-2.42-1.073A3.277 3.277 0 0 0 1.289 10a3.277 3.277 0 0 0 3.274 3.274c.958 0 1.821-.414 2.42-1.073l5.39 3.338a3.277 3.277 0 0 0 3.05 4.46 3.277 3.277 0 0 0 3.273-3.273 3.277 3.277 0 0 0-3.273-3.273Zm-2.08-10.18c0-1.146.933-2.08 2.08-2.08s2.08.934 2.08 2.08c0 1.147-.933 2.08-2.08 2.08a2.082 2.082 0 0 1-2.08-2.08Zm-8.78 8.807A2.082 2.082 0 0 1 2.483 10c0-1.147.933-2.08 2.08-2.08s2.08.933 2.08 2.08-.933 2.08-2.08 2.08Zm8.78 4.646c0-1.146.933-2.08 2.08-2.08s2.08.933 2.08 2.08-.933 2.08-2.08 2.08a2.082 2.082 0 0 1-2.08-2.08Z"/></g><defs><clipPath id="bia"><path fill="#fff" d="M0 0h20v20H0z"/></clipPath></defs></svg><svg viewBox="0 0 16 16" id="icon-shield" xmlns="http://www.w3.org/2000/svg"><path d="M14.714 4.118c-.019-.42-.019-.822-.019-1.224a.564.564 0 0 0-.574-.574c-2.391 0-4.209-.689-5.72-2.162a.59.59 0 0 0-.804 0C6.086 1.63 4.267 2.32 1.877 2.32a.564.564 0 0 0-.575.574c0 .402 0 .803-.019 1.224-.076 4.018-.191 9.529 6.525 11.844l.19.038.192-.038c6.697-2.315 6.601-7.807 6.524-11.844ZM7.54 9.686a.617.617 0 0 1-.402.153h-.02a.538.538 0 0 1-.401-.191l-1.78-1.97.862-.766 1.396 1.55 3.1-2.947.784.842-3.54 3.33Z"/></svg><svg viewBox="0 0 20 20" id="icon-shopping-cart" xmlns="http://www.w3.org/2000/svg"><g clip-path="url(#bla)"><path d="M19.152 7.254h-4.149l-2.327-5.33a.586.586 0 1 0-1.074.47l2.122 4.86H6.276l2.122-4.86a.586.586 0 0 0-1.074-.47l-2.327 5.33H.847c-.542 0-.945.492-.826 1.009l2.185 9.517c.087.378.43.646.827.646h13.934c.397 0 .74-.268.827-.646l2.185-9.517c.119-.517-.284-1.009-.827-1.009ZM5.107 9.051a.586.586 0 0 1-.537-.82l.44-1.008h1.28L5.643 8.7a.586.586 0 0 1-.537.351Zm1.963 6.25a.586.586 0 1 1-1.172 0v-4.297a.586.586 0 1 1 1.172 0v4.297Zm3.516 0a.586.586 0 0 1-1.172 0v-4.297a.586.586 0 0 1 1.172 0v4.297Zm3.516 0a.586.586 0 0 1-1.172 0v-4.297a.586.586 0 0 1 1.172 0v4.297Zm1.025-6.299a.583.583 0 0 1-.771-.302l-.645-1.477h1.278l.44 1.008a.586.586 0 0 1-.302.771Z"/></g><defs><clipPath id="bla"><path fill="#fff" d="M0 0h20v20H0z"/></clipPath></defs></svg><svg viewBox="0 0 20 20" id="icon-shopping-cart-2" xmlns="http://www.w3.org/2000/svg"><g clip-path="url(#bka)"><path d="M19.703 7.23a1.382 1.382 0 0 0-1.087-.522h-3.852l-2.088-4.783a.586.586 0 1 0-1.074.47l1.883 4.313h-6.97l1.883-4.314a.586.586 0 0 0-1.074-.469L5.236 6.708H1.384c-.427 0-.823.19-1.087.521a1.35 1.35 0 0 0-.263 1.148l2.057 8.984a1.373 1.373 0 0 0 1.35 1.066h13.118c.651 0 1.206-.439 1.35-1.066l2.056-8.984a1.35 1.35 0 0 0-.262-1.148ZM16.56 17.254H3.441a.21.21 0 0 1-.207-.155L1.177 8.115a.179.179 0 0 1 .036-.155.213.213 0 0 1 .171-.08h3.34l-.153.351a.586.586 0 0 0 1.073.47l.359-.821h7.994l.359.82a.586.586 0 1 0 1.074-.469l-.154-.351h3.34c.093 0 .147.05.17.08a.18.18 0 0 1 .037.155L16.766 17.1a.21.21 0 0 1-.207.155Z"/><path d="M6.484 10.419a.586.586 0 0 0-.586.586v4.297a.586.586 0 0 0 1.172 0v-4.297a.586.586 0 0 0-.586-.586ZM10 10.419a.586.586 0 0 0-.586.586v4.297a.586.586 0 0 0 1.172 0v-4.297a.586.586 0 0 0-.586-.586ZM13.516 10.419a.586.586 0 0 0-.586.586v4.297a.586.586 0 1 0 1.172 0v-4.297a.586.586 0 0 0-.586-.586Z"/></g><defs><clipPath id="bka"><path fill="#fff" d="M0 0h20v20H0z"/></clipPath></defs></svg><svg viewBox="0 0 18 18" id="icon-speedometer" xmlns="http://www.w3.org/2000/svg"><path d="M8.472 4.564V1.236a8.938 8.938 0 0 0-5.46 2.263l2.353 2.353a5.64 5.64 0 0 1 3.107-1.288ZM4.619 6.597 2.266 4.244A8.937 8.937 0 0 0 0 9.705h3.328a5.64 5.64 0 0 1 1.29-3.108ZM14.67 9.705h3.328a8.938 8.938 0 0 0-2.266-5.46L13.38 6.596a5.641 5.641 0 0 1 1.29 3.108ZM14.67 10.76a5.66 5.66 0 0 1-1.644 3.502.528.528 0 0 0 0 .747l1.6 1.6a.526.526 0 0 0 .747 0 8.948 8.948 0 0 0 2.626-5.85h-3.33ZM3.272 13.786c.147-.232.37-.58.638-.993a5.617 5.617 0 0 1-.58-2.033H0a8.949 8.949 0 0 0 2.626 5.85.526.526 0 0 0 .747 0l.548-.549a1.584 1.584 0 0 1-.433-.307 1.573 1.573 0 0 1-.216-1.968ZM9.527 1.236v3.328a5.64 5.64 0 0 1 3.108 1.288l2.353-2.353a8.938 8.938 0 0 0-5.46-2.263ZM7.827 9.07c-.816.816-3.377 4.827-3.666 5.281a.527.527 0 0 0 .728.728c.454-.289 4.465-2.85 5.282-3.666a1.659 1.659 0 0 0 0-2.343 1.659 1.659 0 0 0-2.344 0Z"/></svg><svg fill="none" viewBox="0 0 14 13" id="icon-star" xmlns="http://www.w3.org/2000/svg"><path d="m7 0 1.847 4.457 4.81.38L9.99 7.97l1.125 4.692L7 10.143l-4.114 2.52L4.01 7.971.343 4.837l4.81-.38L7 0Z" fill="#FFD12E"/></svg><svg viewBox="0 0 16 16" id="icon-tel" xmlns="http://www.w3.org/2000/svg"><g clip-path="url(#boa)"><path d="M14.716 10.502c-.98 0-1.941-.153-2.853-.454-.446-.153-.995-.013-1.268.267l-1.799 1.358C6.71 10.56 5.424 9.275 4.326 7.204l1.318-1.752c.343-.342.465-.842.318-1.31a9.098 9.098 0 0 1-.456-2.858C5.506.576 4.93 0 4.222 0H1.284C.576 0 0 .576 0 1.284 0 9.398 6.602 16 14.716 16c.708 0 1.284-.576 1.284-1.284v-2.93c0-.708-.576-1.284-1.284-1.284Z"/></g><defs><clipPath id="boa"><path d="M0 0h16v16H0z"/></clipPath></defs></svg><svg viewBox="0 0 12 13" id="icon-telegram" xmlns="http://www.w3.org/2000/svg"><g clip-path="url(#bpa)"><path d="m4.709 8.09-.199 2.793c.284 0 .407-.122.555-.269l1.331-1.272 2.76 2.02c.505.282.862.134.998-.465l1.811-8.486c.161-.749-.27-1.041-.763-.858L.557 5.63c-.726.282-.715.687-.123.87l2.721.847L9.477 3.39c.297-.197.568-.088.345.11L4.71 8.09Z"/></g><defs><clipPath id="bpa"><path fill="#fff" transform="translate(0 .5)" d="M0 0h12v12H0z"/></clipPath></defs></svg><svg viewBox="0 0 16 16" id="icon-tg" xmlns="http://www.w3.org/2000/svg"><g clip-path="url(#bqa)"><path d="m6.278 10.121-.265 3.723c.38 0 .543-.163.74-.358l1.775-1.697 3.679 2.694c.675.376 1.15.178 1.332-.62l2.415-11.315c.214-.998-.36-1.388-1.018-1.144L.743 6.838C-.226 7.214-.211 7.754.578 8l3.629 1.129 8.428-5.274c.397-.263.758-.118.461.145l-6.818 6.122Z"/></g><defs><clipPath id="bqa"><path fill="#fff" d="M0 0h16v16H0z"/></clipPath></defs></svg><svg viewBox="0 0 18 18" id="icon-timer" xmlns="http://www.w3.org/2000/svg"><g clip-path="url(#bra)"><path d="M14.453 5.358 15.53 4.28l-1.06-1.06-1.153 1.152A7.452 7.452 0 0 0 9.75 3.038V1.5h1.5V0h-4.5v1.5h1.5v1.538a7.453 7.453 0 0 0-3.567 1.334L3.53 3.22 2.47 4.28l1.077 1.078a7.5 7.5 0 1 0 10.905 0ZM9 16.5a6 6 0 1 1 6-6 6.007 6.007 0 0 1-6 6Z"/><path d="M9 6v4.5H4.5A4.5 4.5 0 1 0 9 6Z"/></g><defs><clipPath id="bra"><path d="M0 0h18v18H0z"/></clipPath></defs></svg><svg viewBox="0 0 6 6" id="icon-triangle" xmlns="http://www.w3.org/2000/svg"><path d="M3.835 4.735a1 1 0 0 1-1.67 0L.56 2.301A1 1 0 0 1 1.394.75h3.212a1 1 0 0 1 .835 1.55L3.835 4.736Z"/></svg><svg viewBox="0 0 25 30" id="icon-triangle-1" xmlns="http://www.w3.org/2000/svg"><path d="M24 13.268c1.333.77 1.333 2.694 0 3.464L3 28.856c-1.333.77-3-.192-3-1.732V2.876C0 1.336 1.667.374 3 1.144l21 12.124Z"/></svg><svg viewBox="0 0 16 16" id="icon-update" xmlns="http://www.w3.org/2000/svg"><path d="M12.573 9.143c0 2.52-2.049 4.571-4.571 4.571A4.576 4.576 0 0 1 3.43 9.143c0-2.52 2.05-4.572 4.572-4.572l1.348.016-.665.665L10.3 6.868l3.436-3.44L10.3 0 8.685 1.616l.674.67H8.002a6.857 6.857 0 1 0 6.857 6.857h-2.286Z"/></svg><svg viewBox="0 0 16 17" id="icon-vacuum-cleaner" xmlns="http://www.w3.org/2000/svg"><g clip-path="url(#bva)"><path d="m2.691 2.52.837.836a6.765 6.765 0 0 1 4.47-1.671 6.836 6.836 0 0 1 2.093.326 6.76 6.76 0 0 1 2.378 1.345l.837-.837A7.967 7.967 0 0 0 7.999.5 7.967 7.967 0 0 0 2.69 2.52Z"/><path d="m13.98 3.193-.836.836A6.764 6.764 0 0 1 14.815 8.5c0 1.82-.709 3.532-1.996 4.82A6.77 6.77 0 0 1 8 15.314a6.771 6.771 0 0 1-4.82-1.996A6.77 6.77 0 0 1 1.186 8.5c0-1.66.59-3.23 1.67-4.47l-.836-.837A7.967 7.967 0 0 0 0 8.5c0 4.411 3.589 8 8 8s8-3.589 8-8a7.967 7.967 0 0 0-2.02-5.307Z"/><path d="M8 2.637c-.501 0-.989.064-1.454.183.009 1.018-.003 5.37-.003 5.569 0 .58.198 1.126.725 1.433a1.488 1.488 0 0 0 1.452.007c.558-.316.698-.831.73-1.392.008-.124.009-4.777.009-5.616A5.853 5.853 0 0 0 8 2.637Zm0 6.34a.484.484 0 0 1-.475-.477c-.012-.257.227-.476.476-.476.267 0 .464.218.476.476.012.257-.227.476-.476.476Z"/><path d="M5.59 3.156A5.871 5.871 0 0 0 2.136 8.5 5.87 5.87 0 0 0 8 14.363 5.87 5.87 0 0 0 13.863 8.5a5.871 5.871 0 0 0-3.453-5.344v4.806c0 .449.027.908-.117 1.34a2.44 2.44 0 0 1-2.725 1.628C6.428 10.74 5.6 9.698 5.589 8.56c-.01-1.027 0-2.054 0-3.08V3.156Z"/></g><defs><clipPath id="bva"><path fill="#fff" transform="translate(0 .5)" d="M0 0h16v16H0z"/></clipPath></defs></svg><svg viewBox="0 0 12 13" id="icon-viber" xmlns="http://www.w3.org/2000/svg"><g clip-path="url(#bxa)"><path d="M6.407 7.28a.351.351 0 0 1-.497 0L4.312 5.682a.352.352 0 0 1 0-.497l.284-.284-.834-.834-.683.683a.59.59 0 0 0 0 .834l2.929 2.93c.11.11.258.171.417.171a.586.586 0 0 0 .417-.172l.683-.683-.834-.834-.284.284Z"/><path d="M11.496 4.735c0-1.127-.442-2.19-1.244-2.991A4.205 4.205 0 0 0 7.26.5H4.75C3.625.5 2.562.942 1.76 1.744A4.205 4.205 0 0 0 .515 4.735v1.973a4.251 4.251 0 0 0 2.509 3.865v1.133c0 .586.327.794.608.794.201 0 .402-.1.597-.294l1.262-1.263h1.769c1.127 0 2.189-.441 2.991-1.244a4.205 4.205 0 0 0 1.244-2.991V4.735ZM8.272 8.08l-.932.932a1.284 1.284 0 0 1-.914.377c-.346 0-.671-.134-.915-.377L2.583 6.08a1.295 1.295 0 0 1 0-1.828l.932-.932a.351.351 0 0 1 .497 0l1.331 1.331a.351.351 0 0 1 0 .498l-.284.284 1.1 1.1.284-.284a.352.352 0 0 1 .498 0l1.331 1.331a.351.351 0 0 1 0 .498ZM5.739 3.913c0-.194.158-.352.352-.352 1.218 0 2.21.991 2.21 2.21a.352.352 0 1 1-.704 0c0-.83-.676-1.506-1.506-1.506a.352.352 0 0 1-.352-.352Zm3.716 2.21a.352.352 0 0 1-.352-.352c0-.805-.313-1.561-.882-2.13a2.993 2.993 0 0 0-2.13-.883.352.352 0 0 1 0-.703c.992 0 1.925.387 2.627 1.088a3.69 3.69 0 0 1 1.088 2.628.352.352 0 0 1-.351.351Z"/></g><defs><clipPath id="bxa"><path fill="#fff" transform="translate(0 .5)" d="M0 0h12v12H0z"/></clipPath></defs></svg><svg viewBox="0 0 19 19" id="icon-viber-2" xmlns="http://www.w3.org/2000/svg"><g clip-path="url(#bwa)"><path d="M9.778 10.67a.527.527 0 0 1-.745 0L6.636 8.273a.527.527 0 0 1 0-.746l.426-.425L5.811 5.85 4.786 6.875a.886.886 0 0 0 0 1.252l4.393 4.393a.878.878 0 0 0 .626.258c.237 0 .46-.092.626-.258l1.025-1.025-1.252-1.251-.426.426Z"/><path d="M17.41 6.853c0-1.69-.663-3.284-1.866-4.487A6.308 6.308 0 0 0 11.057.5H7.292c-1.69 0-3.284.663-4.487 1.866A6.308 6.308 0 0 0 .94 6.853v2.959c0 1.309.4 2.569 1.155 3.642a6.376 6.376 0 0 0 2.609 2.156v1.7c0 .878.492 1.19.913 1.19.301 0 .602-.149.895-.442l1.894-1.893h2.652c1.69 0 3.284-.663 4.487-1.866a6.308 6.308 0 0 0 1.866-4.487V6.853Zm-4.836 5.015-1.398 1.398a1.926 1.926 0 0 1-1.371.566c-.52 0-1.006-.201-1.372-.566L4.04 8.872a1.942 1.942 0 0 1 0-2.742l1.398-1.398a.527.527 0 0 1 .746 0L8.18 6.729a.527.527 0 0 1 0 .745l-.426.426 1.65 1.651.426-.426a.527.527 0 0 1 .746 0l1.997 1.997a.527.527 0 0 1 0 .746ZM8.775 5.619c0-.29.236-.527.528-.527a3.317 3.317 0 0 1 3.313 3.314.527.527 0 1 1-1.054 0 2.262 2.262 0 0 0-2.26-2.26.527.527 0 0 1-.527-.527Zm5.573 3.314a.527.527 0 0 1-.527-.527c0-1.207-.47-2.342-1.323-3.195a4.49 4.49 0 0 0-3.196-1.324.527.527 0 0 1 0-1.054c1.489 0 2.889.58 3.941 1.632a5.536 5.536 0 0 1 1.633 3.94.527.527 0 0 1-.528.528Z"/></g><defs><clipPath id="bwa"><path transform="translate(.166 .5)" d="M0 0h18v18H0z"/></clipPath></defs></svg><svg viewBox="0 0 20 20" id="icon-vk" xmlns="http://www.w3.org/2000/svg"><g clip-path="url(#bya)"><path d="M16.596 10.857c-.323-.409-.231-.59 0-.955.004-.004 2.673-3.693 2.948-4.944h.002c.137-.456 0-.791-.661-.791h-2.187c-.556 0-.813.287-.95.609 0 0-1.114 2.665-2.689 4.392-.508.5-.743.66-1.02.66-.137 0-.35-.16-.35-.616V4.958c0-.547-.156-.791-.617-.791H7.634c-.349 0-.557.255-.557.492 0 .519.788.638.87 2.096V9.92c0 .694-.126.821-.405.821-.744 0-2.548-2.676-3.617-5.738-.216-.594-.427-.834-.987-.834H.75c-.624 0-.75.287-.75.609 0 .568.743 3.394 3.457 7.127 1.808 2.549 4.355 3.93 6.671 3.93 1.393 0 1.563-.307 1.563-.835 0-2.435-.126-2.665.571-2.665.324 0 .88.16 2.18 1.39 1.486 1.457 1.73 2.11 2.562 2.11h2.187c.623 0 .939-.307.757-.912-.416-1.273-3.226-3.89-3.352-4.065Z"/></g><defs><clipPath id="bya"><path d="M0 0h20v20H0z"/></clipPath></defs></svg><svg viewBox="0 0 18 18" id="icon-warning" xmlns="http://www.w3.org/2000/svg"><path d="m16.48 7.712-6.227-6.228A1.76 1.76 0 0 0 9 .964a1.76 1.76 0 0 0-1.253.52L1.519 7.712A1.76 1.76 0 0 0 1 8.965c0 .473.184.918.52 1.253l6.227 6.228c.334.335.78.519 1.253.519a1.76 1.76 0 0 0 1.253-.52l6.228-6.227c.335-.335.519-.78.519-1.253a1.76 1.76 0 0 0-.52-1.253Zm-6.999 4.47a.443.443 0 0 1-.034.133.479.479 0 0 1-.136.183.41.41 0 0 1-.076.05.626.626 0 0 1-.085.036.579.579 0 0 1-.09.018.446.446 0 0 1-.182-.018.455.455 0 0 1-.195-.117.55.55 0 0 1-.082-.11.564.564 0 0 1-.047-.13.485.485 0 0 1 .012-.228.551.551 0 0 1 .058-.124.552.552 0 0 1 .059-.072.53.53 0 0 1 .11-.081.499.499 0 0 1 .175-.053.445.445 0 0 1 .226.033.506.506 0 0 1 .152.101.491.491 0 0 1 .117.196.463.463 0 0 1 .018.182Zm.002-1.517a.469.469 0 1 1-.938 0V5.8a.47.47 0 0 1 .938 0v4.865Z"/></svg><svg viewBox="0 0 13 13" id="icon-whatsapp" xmlns="http://www.w3.org/2000/svg"><g clip-path="url(#cba)"><path d="M6.497.504A5.996 5.996 0 0 0 1.45 9.736l-.933 2.421a.25.25 0 0 0 .317.325l2.499-.892A5.996 5.996 0 1 0 6.497.504Z"/><path d="M9.357 7.525s-.612-.3-.995-.5c-.434-.224-.944.195-1.184.433a3.007 3.007 0 0 1-1.003-.637 3.004 3.004 0 0 1-.636-1.003c.238-.24.655-.75.433-1.183-.198-.384-.5-.996-.5-.996a.25.25 0 0 0-.223-.138h-.5a1.506 1.506 0 0 0-1.249 1.5c0 .784.939 2.291 1.572 2.925.633.633 2.14 1.572 2.925 1.572a1.506 1.506 0 0 0 1.5-1.25V7.75a.25.25 0 0 0-.14-.224Z" fill="#F7F7F7"/></g><defs><clipPath id="cba"><path fill="#fff" transform="translate(.5 .5)" d="M0 0h12v12H0z"/></clipPath></defs></svg><svg viewBox="0 0 19 19" id="icon-whatsapp-2" xmlns="http://www.w3.org/2000/svg"><g clip-path="url(#caa)"><path d="M9.495.506a8.995 8.995 0 0 0-7.57 13.849l-1.4 3.63a.375.375 0 0 0 .476.489l3.748-1.338A8.995 8.995 0 1 0 9.495.506Z"/><path d="M13.784 11.037s-.918-.45-1.493-.75c-.651-.335-1.416.293-1.775.65A4.51 4.51 0 0 1 9.01 9.98a4.507 4.507 0 0 1-.955-1.504c.357-.36.983-1.124.65-1.775-.297-.575-.75-1.494-.75-1.494a.375.375 0 0 0-.334-.206h-.75a2.258 2.258 0 0 0-1.874 2.249c0 1.177 1.409 3.437 2.358 4.388.95.95 3.21 2.358 4.388 2.358a2.258 2.258 0 0 0 2.249-1.874v-.75a.374.374 0 0 0-.21-.336Z" fill="#6F73EE"/></g><defs><clipPath id="caa"><path transform="translate(.5 .5)" d="M0 0h18v18H0z"/></clipPath></defs></svg><svg viewBox="0 0 20 20" id="icon-youtube" xmlns="http://www.w3.org/2000/svg"><g clip-path="url(#cca)"><path d="M.436 14.895c.408 1.448 1.658 1.713 1.741 1.764 2.056.56 13.58.562 15.666 0 1.429-.413 1.692-1.68 1.74-1.764.545-2.895.58-6.67-.024-9.954l.025.163c-.409-1.448-1.658-1.713-1.741-1.764-2.028-.55-13.582-.572-15.666 0C.747 3.754.485 5.02.437 5.104c-.583 3.043-.613 6.534 0 9.791Zm7.572-1.852V6.965l5.222 3.043-5.222 3.035Z"/></g><defs><clipPath id="cca"><path d="M0 0h20v20H0z"/></clipPath></defs></svg></svg>